<?xml version="1.0" encoding="iso-8859-1"?>
<!-- Uploaded to: SVG Repo, www.svgrepo.com, Generator: SVG Repo Mixer Tools -->
<svg fill="#000000" height="800px" width="800px" version="1.1" id="Layer_1" xmlns="http://www.w3.org/2000/svg" xmlns:xlink="http://www.w3.org/1999/xlink" 
	 viewBox="0 0 512 512" xml:space="preserve">
<g>
	<g>
		<path d="M265.919,148.517H118.041c-18.561,0-33.662,15.101-33.662,33.662v55.611c0,18.561,15.102,33.662,33.662,33.662h147.879
			c18.561,0,33.662-15.101,33.662-33.662v-55.61C299.581,163.617,284.48,148.517,265.919,148.517z M266.276,237.79
			c0,0.196-0.161,0.356-0.356,0.356H118.041c-0.196,0-0.356-0.16-0.356-0.356V182.18c0-0.197,0.161-0.356,0.356-0.356h147.879
			c0.196,0,0.356,0.16,0.356,0.356V237.79z"/>
	</g>
</g>
<g>
	<g>
		<path d="M256.788,287.213H127.17c-9.197,0-16.653,7.456-16.653,16.653c0,9.197,7.456,16.653,16.653,16.653h129.618
			c9.197,0,16.653-7.456,16.653-16.653C273.441,294.669,265.985,287.213,256.788,287.213z"/>
	</g>
</g>
<g>
	<g>
		<path d="M461.032,0C439.818,0,72.265,0,50.968,0C23.331,0,0.848,22.483,0.848,50.12v411.761c0,27.636,22.483,50.119,50.12,50.119
			c17.776,0,391.625,0,410.065,0c27.637,0,50.12-22.483,50.12-50.12V50.12C511.151,22.483,488.668,0,461.032,0z M281.743,33.305
			h19.983v35.469c-3.035-1.757-6.476-2.683-9.992-2.683c-3.516,0-6.955,0.925-9.992,2.683V33.305z M349.464,465.266
			c-1.571,7.655-8.36,13.43-16.471,13.43H50.968c-9.272-0.001-16.815-7.544-16.815-16.815V50.12c0-9.272,7.543-16.815,16.815-16.815
			h197.47V92.86c0,7.244,3.936,13.928,10.277,17.446c6.261,3.471,14.015,3.36,20.243-0.532l12.777-7.985l12.779,7.987
			c6.311,3.943,14.067,3.953,20.246,0.527c6.336-3.515,10.271-10.199,10.271-17.443V33.442c8.311,1.011,14.775,8.098,14.775,16.678
			C349.806,487.898,349.977,462.762,349.464,465.266z M477.846,461.881c0,9.271-7.543,16.815-16.815,16.815h-80.823
			c2.896-8.115,2.901-14.218,2.901-20.203h18.074c23.513,0,42.643-19.129,42.643-42.643V96.15c0-23.513-19.129-42.643-42.643-42.643
			h-18.074c0-4.061,0.307-11.219-2.901-20.203h80.823c9.272,0,16.815,7.542,16.815,16.815V461.881z M383.11,425.189V86.813h18.074
			c5.149,0,9.338,4.189,9.338,9.338v319.7c0,5.149-4.189,9.338-9.338,9.338H383.11z"/>
	</g>
</g>
</svg>